# This file uses centimeters as units for non-parametric coordinates.

v -3.326836 0.124078 8.588602
v -1.136050 0.124078 8.588602
v -3.326836 3.405619 8.588602
v -1.136050 3.405619 8.588602
v -3.326836 3.405619 -8.588602
v -1.136050 3.405619 -8.588602
v -3.326836 0.124078 -8.588602
v -1.136050 0.124078 -8.588602
v -1.136050 0.124078 -8.377130
v -1.136050 0.124078 8.377130
v -1.136050 3.405619 -8.377130
v -1.136050 3.405619 8.377130
v -3.326836 0.124078 -8.377130
v -3.326836 0.124078 8.377130
v -3.326836 3.405619 8.377130
v -3.326836 3.405619 -8.377130
v -1.136050 0.498919 -8.377130
v -1.136050 0.498919 8.377130
v -1.136050 3.030779 -8.377130
v -1.136050 3.030779 8.377130
v -3.326836 0.498919 -8.377130
v -3.326836 0.498919 8.377130
v -3.326836 3.030779 8.377130
v -3.326836 3.030779 -8.377130
v -1.984455 0.964458 -8.377130
v -1.984455 0.964458 8.377130
v -1.984455 2.565240 -8.377130
v -1.984455 2.565240 8.377130
v -2.478431 0.964458 -8.377130
v -2.478431 0.964458 8.377130
v -2.478431 2.565240 8.377130
v -2.478431 2.565240 -8.377130
vt 0.927141 0.691159
vt 0.939411 0.737273
vt 0.921005 0.691159
vt 0.933276 0.737273
vt 0.939411 0.691159
vt 0.933276 0.691159
vt 0.927141 0.737273
vt 0.921005 0.737273
vt 0.939411 0.737273
vt 0.939411 0.691159
vt 0.933276 0.691159
vt 0.933276 0.737273
vt 0.927141 0.737273
vt 0.927141 0.691159
vt 0.921005 0.691159
vt 0.921005 0.737273
vt 0.145038 0.541368
vt 0.867108 0.542669
vt 0.866868 0.632652
vt 0.144798 0.631351
vt 0.139779 0.802290
vt 0.867471 0.803498
vt 0.867231 0.887046
vt 0.139538 0.885838
vt 0.886153 0.461940
vt 0.886153 0.709172
vt 0.876745 0.709172
vt 0.876745 0.461940
vt 0.876745 0.680932
vt 0.876745 0.490180
vt 0.131435 0.709172
vt 0.131435 0.680932
vt 0.131435 0.461940
vt 0.131435 0.490180
vt 0.122027 0.709172
vt 0.122027 0.461940
vt 0.884378 0.719265
vt 0.884378 0.966498
vt 0.874970 0.966498
vt 0.874970 0.719265
vt 0.874970 0.938257
vt 0.874970 0.747506
vt 0.129660 0.966498
vt 0.129660 0.938257
vt 0.129660 0.719265
vt 0.129660 0.747506
vt 0.120253 0.966498
vt 0.120253 0.719265
vt 0.238409 0.455345
vt 0.238409 0.253313
vt 1.000457 0.253313
vt 1.000457 0.455345
vt 0.240639 0.233261
vt 0.240639 0.031229
vt 1.002688 0.031229
vt 1.002688 0.233261
vt 0.145164 0.493711
vt 0.867234 0.495012
vt 0.866742 0.680232
vt 0.144672 0.678931
vt 0.139906 0.758112
vt 0.867599 0.759320
vt 0.867103 0.931295
vt 0.139411 0.930087
vt 0.022936 0.248811
vt 0.211075 0.248811
vt 0.211075 0.436949
vt 0.022936 0.436949
vt 0.020903 0.044358
vt 0.209041 0.044358
vt 0.209041 0.232497
vt 0.020903 0.232497
vt 0.982825 0.488497
vt 0.982825 0.656326
vt 0.898587 0.625467
vt 0.898587 0.519356
vt 0.027457 0.656538
vt 0.026606 0.488711
vt 0.111000 0.519143
vt 0.111537 0.625253
vt 0.025173 0.926808
vt 0.025173 0.758980
vt 0.109411 0.789839
vt 0.109411 0.895949
vt 0.980308 0.758884
vt 0.980352 0.926714
vt 0.896106 0.895876
vt 0.896078 0.789766
vn 0.000000 0.000000 1.000000
vn 0.000000 0.000000 1.000000
vn 0.000000 0.000000 1.000000
vn 0.000000 0.000000 1.000000
vn 0.000000 1.000000 0.000000
vn 0.000000 1.000000 0.000000
vn 0.000000 1.000000 0.000000
vn 0.000000 1.000000 0.000000
vn 0.000000 0.000000 -1.000000
vn 0.000000 0.000000 -1.000000
vn 0.000000 0.000000 -1.000000
vn 0.000000 0.000000 -1.000000
vn 0.000000 -1.000000 0.000000
vn 0.000000 -1.000000 0.000000
vn 0.000000 -1.000000 0.000000
vn 0.000000 -1.000000 0.000000
vn 1.000000 0.000000 0.000000
vn 1.000000 0.000000 0.000000
vn 1.000000 0.000000 0.000000
vn 1.000000 0.000000 0.000000
vn -1.000000 0.000000 0.000000
vn -1.000000 0.000000 0.000000
vn -1.000000 0.000000 0.000000
vn -1.000000 0.000000 0.000000
vn 0.000000 0.000000 0.000000
vn 0.000000 0.000000 0.000000
vn 1.000000 0.000000 0.000000
vn 1.000000 0.000000 0.000000
vn 1.000000 0.000000 0.000000
vn 1.000000 0.000000 0.000000
vn 0.000000 0.000000 0.000000
vn 0.000000 0.000000 0.000000
vn 1.000000 0.000000 0.000000
vn 1.000000 0.000000 0.000000
vn 1.000000 0.000000 0.000000
vn 1.000000 0.000000 0.000000
vn 0.000000 0.000000 0.000000
vn 0.000000 0.000000 0.000000
vn -1.000000 0.000000 0.000000
vn -1.000000 0.000000 0.000000
vn -1.000000 0.000000 0.000000
vn -1.000000 0.000000 0.000000
vn 0.000000 0.000000 0.000000
vn 0.000000 0.000000 0.000000
vn -1.000000 0.000000 0.000000
vn -1.000000 0.000000 0.000000
vn -1.000000 0.000000 0.000000
vn -1.000000 0.000000 0.000000
vn 1.000000 0.000000 0.000000
vn 1.000000 0.000000 0.000000
vn 1.000000 0.000000 0.000000
vn 1.000000 0.000000 0.000000
vn 1.000000 0.000000 0.000000
vn 1.000000 0.000000 0.000000
vn 0.000000 0.000000 0.000000
vn 0.000000 0.000000 0.000000
vn 0.000000 0.000000 0.000000
vn 0.000000 0.000000 0.000000
vn -1.000000 0.000000 0.000000
vn -1.000000 0.000000 0.000000
vn -1.000000 0.000000 0.000000
vn -1.000000 0.000000 0.000000
vn -1.000000 0.000000 0.000000
vn -1.000000 0.000000 0.000000
vn -0.000000 0.000000 0.000000
vn -0.000000 0.000000 0.000000
vn -0.000000 0.000000 0.000000
vn -0.000000 0.000000 0.000000
vn 0.481058 0.876689 0.000000
vn 0.481058 0.876689 0.000000
vn 0.481058 0.876689 0.000000
vn 0.481058 0.876689 0.000000
vn 0.000000 0.000000 1.000000
vn 0.000000 0.000000 1.000000
vn 0.000000 0.000000 1.000000
vn 0.000000 0.000000 1.000000
vn 0.481058 -0.876689 0.000000
vn 0.481058 -0.876689 0.000000
vn 0.481058 -0.876689 0.000000
vn 0.481058 -0.876689 0.000000
vn -0.000001 0.000000 -1.000000
vn -0.000001 0.000000 -1.000000
vn -0.000001 0.000000 -1.000000
vn -0.000001 0.000000 -1.000000
vn -0.481058 0.876689 0.000000
vn -0.481058 0.876689 0.000000
vn -0.481058 0.876689 0.000000
vn -0.481058 0.876689 0.000000
vn 0.000000 0.000000 -1.000000
vn 0.000000 0.000000 -1.000000
vn 0.000000 0.000000 -1.000000
vn 0.000000 0.000000 -1.000000
vn -0.481058 -0.876689 0.000000
vn -0.481058 -0.876689 0.000000
vn -0.481058 -0.876689 0.000000
vn -0.481058 -0.876689 0.000000
vn 0.000001 0.000000 1.000000
vn 0.000001 0.000000 1.000000
vn 0.000001 0.000000 1.000000
vn 0.000001 0.000000 1.000000
g pCube1
f 1/65/1 2/66/2 4/67/3 3/68/4
f 3/49/5 4/50/6 6/51/7 5/52/8
f 5/69/9 6/70/10 8/71/11 7/72/12
f 7/53/13 8/54/14 2/55/15 1/56/16
f 26/17/17 25/18/18 27/19/19 28/20/20
f 29/21/21 30/22/22 31/23/23 32/24/24
f 2/2/15 8/5/14 9/10/25 10/9/26
f 8/25/27 6/26/28 11/27/29 9/28/30
f 6/6/7 4/4/6 12/12/31 11/11/32
f 4/35/33 2/36/34 10/33/35 12/31/36
f 7/7/13 1/1/16 14/14/37 13/13/38
f 1/37/39 3/38/40 15/39/41 14/40/42
f 3/3/5 5/8/8 16/16/43 15/15/44
f 5/47/45 7/48/46 13/45/47 16/43/48
f 10/33/49 9/28/30 17/30/50 18/34/51
f 9/28/30 11/27/29 19/29/52 17/30/50
f 11/27/29 12/31/53 20/32/54 19/29/52
f 12/31/55 10/33/56 18/34/57 20/32/58
f 13/45/59 14/40/42 22/42/60 21/46/61
f 14/40/42 15/39/41 23/41/62 22/42/60
f 15/39/41 16/43/63 24/44/64 23/41/62
f 16/43/65 13/45/66 21/46/67 24/44/68
f 18/57/69 17/58/70 25/18/71 26/17/72
f 17/73/73 19/74/74 27/75/75 25/76/76
f 19/59/77 20/60/78 28/20/79 27/19/80
f 20/77/81 18/78/82 26/79/83 28/80/84
f 21/61/85 22/62/86 30/22/87 29/21/88
f 22/81/89 23/82/90 31/83/91 30/84/92
f 23/63/93 24/64/94 32/24/95 31/23/96
f 24/85/97 21/86/98 29/87/99 32/88/100
