# This file uses centimeters as units for non-parametric coordinates.

v -3.864555 4.474926 -9.480955
v -4.530258 4.474926 -9.480955
v -3.864555 9.633902 -2.934594
v -4.530258 9.633902 -2.934594
v -3.864555 9.631252 -1.413327
v -4.530258 9.631252 -1.413327
v -3.864555 4.468573 -7.981945
v -4.530258 4.468573 -7.981945
vt 0.375000 0.000000
vt 0.625000 0.000000
vt 0.375000 0.250000
vt 0.625000 0.250000
vt 0.375000 0.500000
vt 0.625000 0.500000
vt 0.375000 0.750000
vt 0.625000 0.750000
vt 0.375000 1.000000
vt 0.625000 1.000000
vt 0.875000 0.000000
vt 0.875000 0.250000
vt 0.125000 0.000000
vt 0.125000 0.250000
vn 0.000000 0.785420 -0.618964
vn 0.000000 0.785420 -0.618964
vn 0.000000 0.785420 -0.618964
vn 0.000000 0.785420 -0.618964
vn -0.000000 0.999999 0.001741
vn -0.000000 0.999999 0.001741
vn -0.000000 0.999999 0.001741
vn -0.000000 0.999999 0.001741
vn -0.000000 -0.786224 0.617941
vn -0.000000 -0.786224 0.617941
vn -0.000000 -0.786224 0.617941
vn -0.000000 -0.786224 0.617941
vn 0.000000 -0.999991 -0.004238
vn 0.000000 -0.999991 -0.004238
vn 0.000000 -0.999991 -0.004238
vn 0.000000 -0.999991 -0.004238
vn -1.000000 0.000000 -0.000000
vn -1.000000 0.000000 -0.000000
vn -1.000000 0.000000 -0.000000
vn -1.000000 0.000000 -0.000000
vn 1.000000 0.000000 0.000000
vn 1.000000 0.000000 0.000000
vn 1.000000 0.000000 0.000000
vn 1.000000 0.000000 0.000000
g pCube23
f 1/1/1 2/2/2 4/4/3 3/3/4
f 3/3/5 4/4/6 6/6/7 5/5/8
f 5/5/9 6/6/10 8/8/11 7/7/12
f 7/7/13 8/8/14 2/10/15 1/9/16
f 2/2/17 8/11/18 6/12/19 4/4/20
f 7/13/21 1/1/22 3/3/23 5/14/24
v -4.530257 4.474926 6.435097
v -3.864554 4.474926 6.435097
v -4.530257 9.633902 -0.111264
v -3.864554 9.633902 -0.111264
v -4.530257 9.631252 -1.632531
v -3.864554 9.631252 -1.632531
v -4.530257 4.468573 4.936087
v -3.864554 4.468573 4.936087
vt 0.375000 0.000000
vt 0.625000 0.000000
vt 0.375000 0.250000
vt 0.625000 0.250000
vt 0.375000 0.500000
vt 0.625000 0.500000
vt 0.375000 0.750000
vt 0.625000 0.750000
vt 0.375000 1.000000
vt 0.625000 1.000000
vt 0.875000 0.000000
vt 0.875000 0.250000
vt 0.125000 0.000000
vt 0.125000 0.250000
vn 0.000000 0.785420 0.618964
vn 0.000000 0.785420 0.618964
vn 0.000000 0.785420 0.618964
vn 0.000000 0.785420 0.618964
vn 0.000000 0.999999 -0.001741
vn 0.000000 0.999999 -0.001741
vn 0.000000 0.999999 -0.001741
vn 0.000000 0.999999 -0.001741
vn 0.000000 -0.786224 -0.617941
vn 0.000000 -0.786224 -0.617941
vn 0.000000 -0.786224 -0.617941
vn 0.000000 -0.786224 -0.617941
vn 0.000000 -0.999991 0.004238
vn 0.000000 -0.999991 0.004238
vn 0.000000 -0.999991 0.004238
vn 0.000000 -0.999991 0.004238
vn 1.000000 0.000000 0.000000
vn 1.000000 0.000000 0.000000
vn 1.000000 0.000000 0.000000
vn 1.000000 0.000000 0.000000
vn -1.000000 0.000000 0.000000
vn -1.000000 0.000000 0.000000
vn -1.000000 0.000000 0.000000
vn -1.000000 0.000000 0.000000
g pCube24
f 9/15/25 10/16/26 12/18/27 11/17/28
f 11/17/29 12/18/30 14/20/31 13/19/32
f 13/19/33 14/20/34 16/22/35 15/21/36
f 15/21/37 16/22/38 10/24/39 9/23/40
f 10/16/41 16/25/42 14/26/43 12/18/44
f 15/27/45 9/15/46 11/17/47 13/28/48
